<svg width="24" height="144" viewBox="0 0 24 144" fill="none" xmlns="http://www.w3.org/2000/svg">
<path d="M21.68 7.56C21.6079 7.31911 21.489 7.09482 21.33 6.9C21.1726 6.70616 20.9746 6.54914 20.75 6.44C20.5162 6.32451 20.2606 6.25976 20 6.25H6.17001C5.97424 6.26233 5.78176 6.30623 5.60001 6.38L5.54001 6.08C5.52974 5.82822 5.46976 5.58097 5.36351 5.35248C5.25727 5.12398 5.10686 4.91877 4.92095 4.74867C4.73504 4.57856 4.51732 4.44693 4.28031 4.36134C4.0433 4.27576 3.7917 4.23792 3.54001 4.25H2.54001C2.3411 4.25 2.15033 4.32902 2.00968 4.46967C1.86903 4.61032 1.79001 4.80109 1.79001 5C1.79001 5.19891 1.86903 5.38968 2.00968 5.53033C2.15033 5.67098 2.3411 5.75 2.54001 5.75H3.54001C3.96001 5.75 4.03001 5.82 4.11001 6.34L5.20001 11.88L5.74001 14.66C5.89395 15.5251 6.33844 16.3117 7.00001 16.89C7.4488 17.2552 7.97581 17.5118 8.54001 17.64C8.19468 18.0088 8.00175 18.4947 8.00001 19C8.00001 19.5304 8.21072 20.0391 8.5858 20.4142C8.96087 20.7893 9.46958 21 10 21C10.5304 21 11.0391 20.7893 11.4142 20.4142C11.7893 20.0391 12 19.5304 12 19C11.994 18.543 11.8317 18.1019 11.54 17.75H14.42C14.1427 18.1072 13.9947 18.5478 14 19C14.004 19.3238 14.0866 19.6417 14.2407 19.9265C14.3947 20.2114 14.6156 20.4545 14.8844 20.6351C15.1532 20.8157 15.4618 20.9283 15.7837 20.9633C16.1056 20.9983 16.4312 20.9546 16.7325 20.836C17.0338 20.7174 17.3018 20.5274 17.5134 20.2824C17.7251 20.0373 17.8741 19.7445 17.9476 19.4292C18.0211 19.1138 18.017 18.7854 17.9355 18.472C17.8541 18.1586 17.6978 17.8696 17.48 17.63C18.0113 17.5043 18.5093 17.2655 18.94 16.93C19.6079 16.4022 20.074 15.6607 20.26 14.83L21.73 8.37V8.3C21.7687 8.05269 21.7516 7.79986 21.68 7.56ZM18.79 14.49C18.6801 14.9909 18.4018 15.4389 18.0014 15.7592C17.6009 16.0795 17.1028 16.2528 16.59 16.25H9.38001C8.86108 16.2457 8.35958 16.0622 7.96047 15.7305C7.56136 15.3988 7.28917 14.9394 7.19001 14.43L6.00001 8.1C5.99732 8.06672 5.99732 8.03328 6.00001 8V7.86C6.02871 7.82801 6.06249 7.80097 6.10001 7.78H6.19001H20C20.0427 7.7698 20.0873 7.7698 20.13 7.78C20.1675 7.80097 20.2013 7.82801 20.23 7.86C20.2594 7.89071 20.2801 7.92867 20.29 7.97C20.295 8.0065 20.295 8.0435 20.29 8.08L18.79 14.49Z" fill="#2E3137"/>
<path d="M20 28.25H4C3.53668 28.2526 3.09309 28.4378 2.76546 28.7655C2.43784 29.0931 2.25263 29.5367 2.25 30V42C2.25263 42.4633 2.43784 42.9069 2.76546 43.2345C3.09309 43.5622 3.53668 43.7474 4 43.75H20C20.4633 43.7474 20.9069 43.5622 21.2345 43.2345C21.5622 42.9069 21.7474 42.4633 21.75 42V30C21.7474 29.5367 21.5622 29.0931 21.2345 28.7655C20.9069 28.4378 20.4633 28.2526 20 28.25ZM19 29.75L12.91 34.38C12.6885 34.5344 12.425 34.6172 12.155 34.6172C11.885 34.6172 11.6215 34.5344 11.4 34.38L5.16 29.75H19ZM20 42.25H4C3.9337 42.25 3.87011 42.2237 3.82322 42.1768C3.77634 42.1299 3.75 42.0663 3.75 42V30.57L10.46 35.57C10.9417 35.9087 11.5162 36.0904 12.105 36.0904C12.6938 36.0904 13.2683 35.9087 13.75 35.57L20.25 30.63V42C20.25 42.0663 20.2237 42.1299 20.1768 42.1768C20.1299 42.2237 20.0663 42.25 20 42.25Z" fill="#2E3137"/>
<path d="M21 65.25H19.75V59C19.7474 57.2393 19.1461 55.5318 18.0449 54.158C16.9436 52.7842 15.4079 51.8257 13.69 51.44C13.7253 51.2958 13.7455 51.1484 13.75 51C13.75 50.5359 13.5656 50.0908 13.2374 49.7626C12.9092 49.4344 12.4641 49.25 12 49.25C11.5359 49.25 11.0908 49.4344 10.7626 49.7626C10.4344 50.0908 10.25 50.5359 10.25 51C10.2545 51.1484 10.2747 51.2958 10.31 51.44C8.59207 51.8257 7.05637 52.7842 5.95514 54.158C4.85391 55.5318 4.25261 57.2393 4.25 59V65.25H3C2.80109 65.25 2.61032 65.329 2.46967 65.4697C2.32902 65.6103 2.25 65.8011 2.25 66C2.25 66.1989 2.32902 66.3897 2.46967 66.5303C2.61032 66.671 2.80109 66.75 3 66.75H8.25V67C8.25 67.9946 8.64509 68.9484 9.34835 69.6517C10.0516 70.3549 11.0054 70.75 12 70.75C12.9946 70.75 13.9484 70.3549 14.6517 69.6517C15.3549 68.9484 15.75 67.9946 15.75 67V66.75H21C21.1989 66.75 21.3897 66.671 21.5303 66.5303C21.671 66.3897 21.75 66.1989 21.75 66C21.75 65.8011 21.671 65.6103 21.5303 65.4697C21.3897 65.329 21.1989 65.25 21 65.25ZM14.25 67C14.25 67.5967 14.0129 68.169 13.591 68.591C13.169 69.0129 12.5967 69.25 12 69.25C11.4033 69.25 10.831 69.0129 10.409 68.591C9.98705 68.169 9.75 67.5967 9.75 67V66.75H14.25V67ZM15 65.25H5.75V59C5.75 57.3424 6.40848 55.7527 7.58058 54.5806C8.75269 53.4085 10.3424 52.75 12 52.75C13.6576 52.75 15.2473 53.4085 16.4194 54.5806C17.5915 55.7527 18.25 57.3424 18.25 59V65.25H15Z" fill="#2E3137"/>
<path fill-rule="evenodd" clip-rule="evenodd" d="M8 74.25H16C16.7293 74.25 17.4288 74.5397 17.9445 75.0555C18.4603 75.5712 18.75 76.2707 18.75 77V91C18.75 91.7293 18.4603 92.4288 17.9445 92.9445C17.4288 93.4603 16.7293 93.75 16 93.75H8C7.27065 93.75 6.57118 93.4603 6.05546 92.9445C5.53973 92.4288 5.25 91.7293 5.25 91V77C5.25 76.2707 5.53973 75.5712 6.05546 75.0555C6.57118 74.5397 7.27065 74.25 8 74.25ZM16.8839 91.8839C17.1183 91.6495 17.25 91.3315 17.25 91V77C17.25 76.6685 17.1183 76.3505 16.8839 76.1161C16.6495 75.8817 16.3315 75.75 16 75.75H15C14.9423 76.104 14.7588 76.4253 14.4833 76.6549C14.2077 76.8846 13.8586 77.0071 13.5 77H10.5C10.1414 77.0071 9.79226 76.8846 9.51672 76.6549C9.24117 76.4253 9.0577 76.104 9 75.75H8C7.66848 75.75 7.35054 75.8817 7.11612 76.1161C6.8817 76.3505 6.75 76.6685 6.75 77V91C6.75 91.3315 6.8817 91.6495 7.11612 91.8839C7.35054 92.1183 7.66848 92.25 8 92.25H16C16.3315 92.25 16.6495 92.1183 16.8839 91.8839ZM11 89.25H13C13.1989 89.25 13.3897 89.329 13.5303 89.4697C13.671 89.6103 13.75 89.8011 13.75 90C13.75 90.1989 13.671 90.3897 13.5303 90.5303C13.3897 90.671 13.1989 90.75 13 90.75H11C10.8011 90.75 10.6103 90.671 10.4697 90.5303C10.329 90.3897 10.25 90.1989 10.25 90C10.25 89.8011 10.329 89.6103 10.4697 89.4697C10.6103 89.329 10.8011 89.25 11 89.25Z" fill="#8D96AA"/>
<path fill-rule="evenodd" clip-rule="evenodd" d="M20 109.35C20.4936 109.665 20.8506 110.154 21 110.72C21.0726 111.002 21.0861 111.296 21.0397 111.583C20.9932 111.871 20.8878 112.145 20.73 112.39L20.26 113.23C20.0544 113.594 19.7548 113.897 19.3925 114.106C19.0302 114.316 18.6184 114.424 18.2 114.42C17.9017 114.411 17.6073 114.35 17.33 114.24L16.82 114C16.1941 114.504 15.4964 114.912 14.75 115.21V115.49C14.7422 116.084 14.5027 116.652 14.0824 117.072C13.6621 117.493 13.0943 117.732 12.5 117.74H11.5C10.9057 117.732 10.3379 117.493 9.91758 117.072C9.4973 116.652 9.25775 116.084 9.24998 115.49V115.21C8.46007 114.902 7.72421 114.47 7.06998 113.93L6.93998 114C6.623 114.277 6.22041 114.435 5.79998 114.45C5.40475 114.437 5.01929 114.324 4.67989 114.121C4.3405 113.918 4.05834 113.632 3.85998 113.29L3.36998 112.5C3.20571 112.256 3.09493 111.981 3.04495 111.691C2.99496 111.402 3.0069 111.105 3.07998 110.82C3.23068 110.262 3.5883 109.783 4.07998 109.48L4.38998 109.3C4.31086 108.871 4.27069 108.436 4.26998 108C4.25734 107.606 4.27741 107.211 4.32998 106.82L4.07998 106.68C3.5675 106.375 3.19168 105.884 3.02998 105.31C2.95731 105.022 2.94647 104.721 2.99817 104.428C3.04987 104.135 3.16295 103.856 3.32998 103.61L3.79998 102.77C3.99979 102.414 4.28974 102.116 4.64077 101.907C4.99179 101.699 5.39156 101.586 5.79998 101.58C6.09825 101.589 6.39269 101.65 6.66998 101.76L7.17998 102C7.80523 101.492 8.50297 101.081 9.24998 100.78V100.5C9.25775 99.9057 9.4973 99.3379 9.91758 98.9176C10.3379 98.4973 10.9057 98.2578 11.5 98.25H12.5C13.0943 98.2578 13.6621 98.4973 14.0824 98.9176C14.5027 99.3379 14.7422 99.9057 14.75 100.5V100.78C15.5422 101.09 16.2811 101.522 16.94 102.06L17.13 101.95C17.4929 101.765 17.8926 101.662 18.3 101.65C18.6969 101.661 19.0844 101.774 19.4257 101.977C19.767 102.18 20.0507 102.467 20.25 102.81L20.66 103.53C20.8171 103.782 20.9212 104.064 20.9659 104.358C21.0106 104.652 20.995 104.952 20.92 105.24C20.7242 105.758 20.3755 106.205 19.92 106.52L19.61 106.7C19.6891 107.129 19.7293 107.564 19.73 108C19.7364 108.385 19.713 108.769 19.66 109.15L20 109.35ZM18.93 112.51L19.42 111.64H19.45C19.5084 111.56 19.5501 111.47 19.5724 111.373C19.5948 111.277 19.5973 111.177 19.58 111.08C19.5004 110.89 19.3642 110.73 19.19 110.62L17.95 109.91L18.07 109.37C18.1768 108.921 18.2305 108.461 18.23 108C18.226 107.511 18.1622 107.024 18.04 106.55L17.9 106L19.13 105.25C19.2885 105.119 19.4121 104.95 19.49 104.76C19.501 104.605 19.4624 104.451 19.38 104.32L18.95 103.57C18.8846 103.452 18.791 103.352 18.6776 103.278C18.5643 103.205 18.4345 103.161 18.3 103.15C18.1403 103.16 17.9841 103.201 17.84 103.27L16.73 103.91L16.32 103.52C15.6059 102.833 14.7387 102.326 13.79 102.04L13.25 101.88V100.5C13.2426 100.303 13.1612 100.117 13.0221 99.9779C12.883 99.8388 12.6965 99.7574 12.5 99.75H11.5C11.3034 99.7574 11.117 99.8388 10.9779 99.9779C10.8388 100.117 10.7574 100.303 10.75 100.5V101.84L10.21 102C9.29982 102.286 8.46817 102.779 7.77998 103.44L7.36998 103.81L6.16998 103.14C6.05192 103.091 5.92716 103.061 5.79998 103.05C5.66199 103.062 5.5293 103.109 5.41401 103.186C5.29873 103.263 5.20452 103.367 5.13998 103.49L4.64998 104.36C4.59153 104.44 4.54988 104.53 4.52753 104.627C4.50519 104.723 4.50262 104.823 4.51998 104.92C4.59954 105.11 4.73574 105.27 4.90998 105.38L6.06998 106.05L5.93998 106.58C5.83101 107.046 5.774 107.522 5.76998 108C5.78401 108.508 5.86128 109.012 5.99998 109.5L6.09998 110L4.86998 110.8C4.71231 110.904 4.59021 111.054 4.51998 111.23C4.50208 111.316 4.50172 111.404 4.5189 111.49C4.53609 111.576 4.57047 111.658 4.61998 111.73L5.12998 112.55C5.19489 112.675 5.2903 112.782 5.40739 112.861C5.52449 112.939 5.6595 112.987 5.79998 113C5.87781 112.977 5.94728 112.932 5.99998 112.87L6.11998 112.79L7.26998 112.13L7.67998 112.52C8.39407 113.207 9.26125 113.714 10.21 114L10.75 114.12V115.5C10.7574 115.697 10.8388 115.883 10.9779 116.022C11.117 116.161 11.3034 116.243 11.5 116.25H12.5C12.6965 116.243 12.883 116.161 13.0221 116.022C13.1612 115.883 13.2426 115.697 13.25 115.5V114.16L13.79 114C14.6914 113.707 15.5152 113.215 16.2 112.56L16.6 112.18L17.8 112.86C17.918 112.909 18.0428 112.939 18.17 112.95C18.3245 112.952 18.4766 112.912 18.6104 112.834C18.7441 112.757 18.8545 112.645 18.93 112.51ZM9.91221 104.862C10.5313 104.452 11.2579 104.236 12 104.24C12.992 104.248 13.9407 104.648 14.6393 105.352C15.338 106.056 15.73 107.008 15.73 108C15.728 108.742 15.5059 109.467 15.0917 110.083C14.6776 110.699 14.09 111.178 13.4035 111.459C12.7169 111.741 11.9622 111.813 11.2349 111.665C10.5076 111.518 9.84037 111.158 9.31773 110.631C8.79509 110.104 8.44052 109.434 8.2989 108.706C8.15728 107.977 8.23498 107.223 8.52217 106.539C8.80936 105.854 9.29312 105.271 9.91221 104.862ZM10.7435 109.87C11.1163 110.115 11.5537 110.244 12 110.24C12.5915 110.235 13.1572 109.997 13.5745 109.578C13.9919 109.158 14.2274 108.592 14.23 108C14.2319 107.554 14.1011 107.117 13.8542 106.745C13.6073 106.373 13.2554 106.084 12.8433 105.912C12.4312 105.741 11.9774 105.696 11.5398 105.784C11.1021 105.871 10.7003 106.086 10.3854 106.403C10.0706 106.719 9.85689 107.122 9.77153 107.56C9.68617 107.998 9.73301 108.451 9.90608 108.863C10.0792 109.274 10.3706 109.625 10.7435 109.87Z" fill="#2E3137"/>
<path d="M12 135.25C11.9015 135.25 11.8038 135.231 11.7128 135.193C11.6218 135.156 11.5392 135.1 11.47 135.03L6.47 130.03C6.37027 129.884 6.32527 129.708 6.34293 129.532C6.36058 129.356 6.43977 129.192 6.56651 129.069C6.69325 128.946 6.85941 128.871 7.03569 128.859C7.21196 128.846 7.38702 128.896 7.53 129L12 133.44L16.47 129C16.611 128.909 16.7785 128.867 16.9458 128.882C17.1131 128.898 17.2705 128.968 17.3927 129.084C17.5149 129.199 17.5948 129.352 17.6197 129.518C17.6446 129.684 17.613 129.854 17.53 130L12.53 135C12.4633 135.076 12.3819 135.137 12.2908 135.18C12.1997 135.223 12.1007 135.247 12 135.25Z" fill="#2E3137"/>
</svg>
